<svg id="Group_1.SVG" data-name="Group 1.SVG" xmlns="http://www.w3.org/2000/svg" width="1100" height="150" viewBox="0 0 1100 150">
  <defs>
    <style>
      .cls-1 {
           fill: #8cc43f;
      }

      .cls-1, .cls-2 {
        fill-rule: evenodd;
      }

      .cls-2 {
        fill: #0278cb;
      }
    </style>
  </defs>
  <path id="Shape_1.SVG" data-name="Shape 1.SVG" class="cls-1" d="M75.706,74.269c1.008-2.937,3.342-37.418,8.791-48.377,6.622-13.23,28.781-27.266,50.665-9.582,7.6,6.841,16.574,24.15,6.015,41.833-6.268,8.959-13.965,13.9-20.359,14.957-4.446.732-16.645,1.3-20.358,1.4C97.4,74.465,78.5,74.28,75.706,74.269Zm1.62,15.894c-0.827,2.346-2.948,29.964-7.378,38.707-5.383,10.554-23.167,21.643-40.492,7.311-6.014-5.538-13.041-19.474-4.484-33.569,5.068-7.135,11.245-11.042,16.355-11.84,3.553-.554,13.289-0.917,16.252-0.976C60.024,89.85,75.1,90.135,77.327,90.163Z"/>
  <path id="new_vector_shape_done" class="cls-2" d="M262,7.5c1.481,0.415,1.366.222,2,1.5,1.642,2.634.5,10.274,0.5,14V58.5h1c3.2-3.383,9.468-6.168,14.5-7.5h5.5c4.241-.9,11.137-0.025,15,1,8.834,2.345,14.368,4.725,18.5,11.5,2.05,3.361,3.018,8.926,4,13V86c1.113,5.24.5,12.9,0.5,19v36c-4.434,2.305-14.768,1.06-21,1-1.51-4.572-.5-12.488-0.5-18V86.5c-2.933-4.832-.1-11.591-5.5-15.5-4.723-3.417-15.662-2.131-20.5,0-4.383,1.93-8.165,4.659-10,9-2.227,5.269-1.5,13.722-1.5,21,0,13.838.253,28.908-2,40-4.434,2.305-14.768,1.06-21,1a10.75,10.75,0,0,1-.5-3.5c3.662-4.886,2-26.687,2-35.5V10h0.5V9.5C246.416,9.234,260.462,8.495,262,7.5Zm261.5,76H525c4.971-7.552,16.368-15.376,23-22,2.955-2.952,6.729-8.174,11-9.5h24a4.448,4.448,0,0,0,1.5,1.5,1.709,1.709,0,0,1-.5,1c-1.357,3.7-6.043,6.267-9,8.5-8.241,6.223-15.22,14.761-23.5,21-3,2.257-8.15,4.75-9.5,8.5,3.342,2.23,6.077,6.293,8.5,9.5l5.5,5c5.609,7.425,12.383,13.561,18,21,3.035,4.019,9.35,7.366,10.5,13a1.808,1.808,0,0,0-.5,1H559c-1.978-3.044-5.358-5.167-7.5-8-5.868-7.762-13.223-14.358-19-22-2.27-3-5.3-8.655-9-10v30.5c-1.394,2.366-.307,8.017-2.5,9.5H501a5.233,5.233,0,0,1-1-3c3.773-5.01,2-26.526,2-35.5V10c3.248-.826,17.491-3.181,20-2,2.555,1.221,1.5,14.272,1.5,18.5v57ZM355.5,15c19.428-.693,21.256,20.625,7,25-9.985,3.064-18.918-8.07-15.5-17C348.671,18.634,352.293,17.77,355.5,15ZM201,52c6.368-.033,13.388.089,19,0.5,0.794,1.475,1.038,2.861,1,5.5,1.551,2.278,1.512,8.039,1.5,11.5-4.434,2.3-14.768,1.06-21,1-1.076,3.249-.5,8.9-0.5,13V113c1.542,2.487.947,6.582,2.5,9,3.956,6.157,10.937,2.254,18.5,2q0.25,0.75.5,1.5c1.579,2.5,1.539,11.83,1.5,16h-0.5V142a69.548,69.548,0,0,0-10,2c-6.994,1.68-14.648-1.052-18.5-3-20.5-10.366-15.66-40.074-15.5-70-4.261-1.432-11.809-.541-17-0.5a5.233,5.233,0,0,1-1-3c-1.424-2.246-1.535-10.768-1.5-14.5l1.5-.5c2.264-1.443,14.214-.557,18-0.5V19.5c4.767-2.651,14.164-2.273,20.5-3C202.5,21.342,201.048,44.2,201,52Zm237.5-1.5C477.438,50.209,477,70.257,477,108c0,10.679,1.413,23.761-.5,33.5-5.188,1.737-14.323.542-20.5,0.5-1.993-3.891-1-12.419-1-18V82.5c-2.887-4.487-1.309-9.787-6.5-12.5-3.764-1.968-12.732-1.165-16.5,0-5.227,1.616-9.718,3.644-12,8-2.552,4.872-2,12.636-2,20,0,13.914,1.815,30.559-.5,43.5-5.188,1.737-14.323.542-20.5,0.5-2.621-5.129-1-16.989-1-24V61c-1.28-1.86-1.681-6.367-1.5-8l1.5-.5c2.5-1.679,18.238-.56,19.5,1,1.169,1.9.564,5.327,2.5,6.5,2.436-3.593,7.643-6.428,12-8C432.38,51.141,436.383,51.83,438.5,50.5ZM888,88c0.119-5.479.257-10.9-2-14-9.462-13.015-38.549,1.175-49.5,2-0.579-1.683-.534-4.575-0.5-7,1.33-1.956,1.415-7.142,1.5-10,5.2-3.012,12.08-5.31,18.5-7,4.75-1.25,12.264-2.016,17-1h7.5c11.4,2.781,21.55,6.842,26.5,16,3.314,6.131,2.5,16.618,2.5,26,0,16.553.357,34.161,2,48-4.434,2.305-14.768,1.06-21,1v-0.5H890c-0.132-1.92-.626-5.183-2-6-2.8,4.272-20.776,11.385-30.5,8.5-15.653-4.645-22.732-7.635-26.5-24.5-0.419-1.876-1.111-6.348-.5-9C833.38,98,840.52,91.789,852,88c3.238-1.069,5.766-.205,9.5-1,2.662-.567,8.559-1.252,12-0.5A78.773,78.773,0,0,0,888,88Zm89-37.5c9.534-.11,19.478.782,25.5,4.5,3.09,1.907,6.62,8.261,9.5,9,5.48-15.57,39.2-16.688,52.5-7,12.45,9.069,10,37.157,10,58.5,0,8.1,1.05,19.08,0,25.5-4.43,2.305-14.77,1.06-21,1-1.47-4.439-.5-12.129-0.5-17.5V87c-2.96-4.921-.03-12.041-5.5-16-3.69-2.668-12.66-2.461-17.5-1-6.29,1.9-10.56,3.985-13,9.5-2.27,5.123-1.5,13.418-1.5,20.5v41c-4.43,2.305-14.77,1.06-21,1-1.466-4.439-.5-12.129-0.5-17.5V87c-2.963-4.921-.025-12.04-5.5-16-4.776-3.454-16.105-2.149-21,0-4.287,1.882-7.714,4.268-9.5,8.5-2.233,5.291-1.5,13.735-1.5,21V141c-4.434,2.305-14.768,1.06-21,1-2.077-6.3-.5-17.147-0.5-24.5v-53c-1.087-1.692-1.946-8.9-2-11.5,5.206-1.3,13.275-1.019,20-1,0.49,0.867,1.677,1.62,2,2.5,1.081,2.948-1.217,4.089,2,5,2.819-4.118,9.659-7.057,15-8.5C973.786,50.518,975.79,51.262,977,50.5ZM675.5,51c40.667-.334,48.824,14.308,48.5,54.5-4.971,1.64-13.564.5-19.5,0.5h-41a1.808,1.808,0,0,1-1,.5v2c3.193,4.931,2.069,9.842,7.5,13.5,12.13,8.169,33.293,1.254,47.5,0a8.843,8.843,0,0,1,1,5c-1.066,1.677-1.5,9.288-1.5,12a7.507,7.507,0,0,1-2,1c-4.482,3.449-31,4.985-38.5,3-5.848-1.547-10.212-.931-15-3-16.041-6.933-21.5-21.19-21.5-44.5,0-5.694-.324-10.742,1-15.5,3.18-11.427,9.231-20.183,19-25C663.8,53.127,672.414,52.949,675.5,51ZM779,109h-1.5v1c-1.2,1.761-.869,4.556-2,6.5-3.435,5.9-8.7,11.313-12.5,17-1.53,2.287-3.523,7.387-6,8.5H735a5.489,5.489,0,0,0-1-1.5q0.251-.75.5-1.5c3.757-3.008,5.694-8.5,8.5-12.5,5.587-7.957,11.474-15.747,17-24,1.578-2.356,4-4.013,5-7-3.1-2.466-4.689-6.7-7-10-4.283-6.112-8.751-12.114-13-18.5-2.363-3.551-6.6-6.713-7-12,1.631-.874,3.628-1.054,6.5-1,2.966-1.991,12.437-1.731,16-1,4.384,7.836,11.89,16.165,15.5,24,1.1,2.376,1.062,4.948,2,7h0.5V83.5l3-8.5c3.057-4.959,7.258-9.646,10.5-14.5,1.637-2.451,2.625-6.352,5.5-7.5,2.208-1.954,18.442-1.239,22-.5a9.175,9.175,0,0,1,.5,3c-1.95,1.553-2.541,3.923-4,6-5.232,7.451-10.657,14.892-16,22.5-2.648,3.771-7.906,7.512-8.5,13,2.155,1.7,2.893,4.212,4.5,6.5,5.576,7.939,11.315,15.887,17,24,2.808,4.008,8.3,8.265,9,14-5.719,1.911-15.759.542-22.5,0.5v-0.5c-3.363-1.292-4.6-5.666-6.5-8.5C788.361,126.066,779.579,119.415,779,109ZM365,52.5l5,0.5v80c0.979,1.348,1.9,6.664,1.5,7.5-1.107,2.438-16.221,1.617-20.5,1.5-3.725-7.046-3-18.746-3-29.5v-57c1.923-1.206,3.41-1.57,7-1.5C357.322,52.543,362.566,54.027,365,52.5ZM662.5,88H702c0.117-13.889-12.309-24-28-18C667.293,72.564,662.938,79.136,662.5,88ZM866,104.5c-0.969.572-2.544,0.031-4,.5-5.825,1.874-10.13,4.954-10,13,1.7,2.318,1.453,4.935,4.5,6,2.961,2.77,9.845,1.947,14,1,12.426-2.834,17.882-4.508,17.5-20h-0.5v-0.5H866Z"/>
</svg>
